<svg width="65" height="65" viewBox="0 0 65 65" fill="none" xmlns="http://www.w3.org/2000/svg">
<path d="M15.4122 0.0531464C14.6809 0.119164 13.4317 0.332443 12.67 0.530495C6.73364 2.05901 2.06176 6.73088 0.533247 12.6672C0.330122 13.4645 0.121919 14.6832 0.0508249 15.511C0.0203562 15.9071 4.36711e-05 21.8891 4.36711e-05 32.5024C4.36711e-05 50.3164 -0.0101126 49.575 0.279341 51.1645C1.07661 55.5063 3.55981 59.3758 7.17543 61.9199C9.70434 63.6973 12.5481 64.7078 15.6915 64.9465C16.7782 65.0278 49.3696 64.9922 49.9688 64.9059C52.8938 64.4895 55.0926 63.6973 57.3016 62.2703C58.2817 61.6356 58.9418 61.1024 59.8864 60.1731C61.5114 58.5887 62.6692 56.9383 63.5528 54.9274C64.2333 53.3938 64.6243 51.9465 64.9086 49.966C64.995 49.3668 65.0305 16.7754 64.9493 15.6887C64.7207 12.718 63.8067 10.0113 62.202 7.58908C59.6477 3.72971 55.6918 1.1094 51.1672 0.276588C49.5778 -0.0128708 50.3395 -0.00270844 32.4036 0.00236511C23.3391 0.00744629 15.6915 0.0328369 15.4122 0.0531464ZM49.461 5.63401C54.1684 6.21291 57.9821 9.56955 59.1348 14.1399C59.4852 15.5313 59.4649 14.2871 59.4649 32.5227C59.4649 47.0258 59.4547 49.0672 59.3887 49.5953C59.1348 51.5199 58.4036 53.343 57.2407 54.9121C56.7532 55.5723 55.575 56.7504 54.9149 57.2379C53.3457 58.4008 51.5227 59.1321 49.5981 59.386C49.07 59.452 47.0286 59.4621 32.5254 59.4621C14.2899 59.4621 15.534 59.4824 14.1426 59.1321C9.55708 57.9742 6.16489 54.1047 5.63676 49.4125C5.59614 49.0672 5.58598 44.0043 5.59614 32.218L5.61137 15.511L5.75356 14.8102C6.57622 10.6918 9.43012 7.43166 13.3403 6.14182C14.0106 5.92346 15.0922 5.67971 15.6915 5.61877C16.1536 5.56799 49.0598 5.5883 49.461 5.63401Z" fill="url(#paint0_linear_1125_147)"/>
<path d="M49.6898 10.885C48.2781 11.2151 47.1965 12.2662 46.8511 13.6627C46.7343 14.135 46.7445 14.9576 46.8715 15.4553C47.43 17.649 49.832 18.8373 51.9242 17.9588C52.4879 17.7252 53.209 17.1463 53.5289 16.674C54.4176 15.3639 54.4074 13.6373 53.4984 12.3627C53.0465 11.7279 52.4269 11.2709 51.6601 11.0018C51.2793 10.8697 51.1218 10.8494 50.6039 10.8342C50.2078 10.819 49.8879 10.8393 49.6898 10.885Z" fill="url(#paint1_linear_1125_147)"/>
<path d="M31.4603 16.3776C27.4689 16.6925 23.8736 18.3276 21.106 21.1003C18.5466 23.6546 16.9775 26.8639 16.4697 30.5659C16.3478 31.4647 16.3478 33.5925 16.4748 34.5014C16.8353 37.1471 17.6478 39.3257 19.0697 41.4585C21.2837 44.7846 24.5896 47.1612 28.3982 48.1616C30.7849 48.7862 33.3849 48.8573 35.797 48.3596C38.9048 47.7198 41.6876 46.2167 43.9525 43.9467C46.5271 41.3721 48.0912 38.1932 48.5837 34.5268C48.6955 33.6788 48.7107 31.5307 48.6091 30.7182C48.1318 26.9401 46.5576 23.6952 43.9271 21.0698C41.388 18.5358 38.1431 16.9515 34.5072 16.4741C33.9283 16.3929 31.9986 16.337 31.4603 16.3776ZM33.4916 21.3288C35.665 21.5116 37.8232 22.38 39.5599 23.7612C40.1337 24.2233 41.0783 25.1983 41.5201 25.7925C42.6576 27.3159 43.3533 28.9815 43.658 30.896C43.7798 31.678 43.7798 33.369 43.658 34.1663C42.8861 39.0971 39.1029 42.8803 34.172 43.6522C33.3951 43.7741 31.638 43.7741 30.8865 43.6522C27.1693 43.053 24.0767 40.7831 22.4466 37.4569C20.7607 34.0241 20.9334 29.9921 22.9087 26.7218C23.8076 25.2389 25.2447 23.8018 26.7275 22.903C28.7537 21.6792 31.1404 21.1257 33.4916 21.3288Z" fill="url(#paint2_linear_1125_147)"/>
<defs>
<linearGradient id="paint0_linear_1125_147" x1="32.4975" y1="64.9922" x2="32.4975" y2="0.000762939" gradientUnits="userSpaceOnUse">
<stop stop-color="#3330C4"/>
<stop offset="0.708333" stop-color="#B12083"/>
</linearGradient>
<linearGradient id="paint1_linear_1125_147" x1="50.4787" y1="18.25" x2="50.4787" y2="10.8292" gradientUnits="userSpaceOnUse">
<stop stop-color="#3330C4"/>
<stop offset="0.708333" stop-color="#B12083"/>
</linearGradient>
<linearGradient id="paint2_linear_1125_147" x1="32.528" y1="48.6875" x2="32.528" y2="16.364" gradientUnits="userSpaceOnUse">
<stop stop-color="#3330C4"/>
<stop offset="0.708333" stop-color="#B12083"/>
</linearGradient>
</defs>
</svg>
