<svg width="87" height="87" viewBox="0 0 87 87" fill="none" xmlns="http://www.w3.org/2000/svg">
<path d="M85.55 0H1.45C0.58 0 0 0.58 0 1.45V55.1V69.6C0 70.47 0.58 71.05 1.45 71.05H53.65V85.55C53.65 86.13 53.94 86.71 54.52 86.855C54.665 87 54.955 87 55.1 87C55.535 87 55.825 86.855 56.115 86.565L71.63 71.05H85.55C86.42 71.05 87 70.47 87 69.6V55.1V1.45C87 0.58 86.42 0 85.55 0ZM2.9 2.9H84.1V53.65H78.3V31.9C78.3 31.03 77.72 30.45 76.85 30.45H69.6C68.73 30.45 68.15 31.03 68.15 31.9V36.25H62.35C61.48 36.25 60.9 36.83 60.9 37.7V42.05H55.1C54.23 42.05 53.65 42.63 53.65 43.5V53.65H2.9V2.9ZM63.8 53.65V43.5V39.15H68.15V53.65H63.8ZM56.55 53.65V44.95H60.9V53.65H56.55ZM71.05 37.7V33.35H75.4V53.65H71.05V37.7ZM84.1 68.15H71.05C70.615 68.15 70.325 68.295 70.035 68.585L56.55 82.07V69.6C56.55 68.73 55.97 68.15 55.1 68.15H2.9V56.55H55.1H62.35H69.6H76.85H84.1V68.15Z" fill="url(#paint0_linear_1125_173)"/>
<path d="M76.8492 60.8984H8.69922V63.7984H76.8492V60.8984Z" fill="url(#paint1_linear_1125_173)"/>
<path d="M36.975 39.0041C37.12 39.0041 37.41 39.1491 37.7 39.1491C37.99 39.1491 38.135 39.1491 38.425 39.0041L54.375 31.0291C54.955 30.7391 55.245 30.3041 55.245 29.7241C55.245 29.1441 54.81 28.7091 54.375 28.4191L38.425 20.4441C37.99 20.1541 37.41 20.1541 36.975 20.4441C36.54 20.7341 36.25 21.3141 36.25 21.7491V37.6991C36.25 38.1341 36.54 38.7141 36.975 39.0041ZM39.15 24.0691L50.46 29.7241L39.15 35.3791V24.0691Z" fill="url(#paint2_linear_1125_173)"/>
<path d="M20.2992 10.1484H8.69922V13.0484H20.2992V10.1484Z" fill="url(#paint3_linear_1125_173)"/>
<path d="M27.5492 17.3984H8.69922V20.2984H27.5492V17.3984Z" fill="url(#paint4_linear_1125_173)"/>
<path d="M27.5492 24.6484H8.69922V27.5484H27.5492V24.6484Z" fill="url(#paint5_linear_1125_173)"/>
<path d="M27.5492 31.8984H8.69922V34.7984H27.5492V31.8984Z" fill="url(#paint6_linear_1125_173)"/>
<path d="M13.0492 46.3984H8.69922V49.2984H13.0492V46.3984Z" fill="url(#paint7_linear_1125_173)"/>
<path d="M21.7504 46.3984H17.4004V49.2984H21.7504V46.3984Z" fill="url(#paint8_linear_1125_173)"/>
<path d="M30.4496 46.3984H26.0996V49.2984H30.4496V46.3984Z" fill="url(#paint9_linear_1125_173)"/>
<path d="M39.1508 46.3984H34.8008V49.2984H39.1508V46.3984Z" fill="url(#paint10_linear_1125_173)"/>
<path d="M68.1492 26.1031C72.9342 26.1031 76.8492 22.1881 76.8492 17.4031C76.8492 12.6181 72.9342 8.70312 68.1492 8.70312C63.3642 8.70312 59.4492 12.6181 59.4492 17.4031C59.4492 22.1881 63.3642 26.1031 68.1492 26.1031ZM73.8042 15.9531H69.5992V11.7481C71.6292 12.3281 73.2242 13.9231 73.8042 15.9531ZM66.6992 11.7481V17.4031C66.6992 18.2731 67.2792 18.8531 68.1492 18.8531H73.8042C73.2242 21.3181 70.9042 23.2031 68.1492 23.2031C64.9592 23.2031 62.3492 20.5931 62.3492 17.4031C62.3492 14.6481 64.2342 12.4731 66.6992 11.7481Z" fill="url(#paint11_linear_1125_173)"/>
<defs>
<linearGradient id="paint0_linear_1125_173" x1="43.5" y1="0" x2="43.5" y2="87" gradientUnits="userSpaceOnUse">
<stop stop-color="#AF2183"/>
<stop offset="1" stop-color="#693484"/>
</linearGradient>
<linearGradient id="paint1_linear_1125_173" x1="42.7742" y1="60.8984" x2="42.7742" y2="63.7984" gradientUnits="userSpaceOnUse">
<stop stop-color="#AF2183"/>
<stop offset="1" stop-color="#693484"/>
</linearGradient>
<linearGradient id="paint2_linear_1125_173" x1="45.7475" y1="20.2266" x2="45.7475" y2="39.1491" gradientUnits="userSpaceOnUse">
<stop stop-color="#AF2183"/>
<stop offset="1" stop-color="#693484"/>
</linearGradient>
<linearGradient id="paint3_linear_1125_173" x1="14.4992" y1="10.1484" x2="14.4992" y2="13.0484" gradientUnits="userSpaceOnUse">
<stop stop-color="#AF2183"/>
<stop offset="1" stop-color="#693484"/>
</linearGradient>
<linearGradient id="paint4_linear_1125_173" x1="18.1242" y1="17.3984" x2="18.1242" y2="20.2984" gradientUnits="userSpaceOnUse">
<stop stop-color="#AF2183"/>
<stop offset="1" stop-color="#693484"/>
</linearGradient>
<linearGradient id="paint5_linear_1125_173" x1="18.1242" y1="24.6484" x2="18.1242" y2="27.5484" gradientUnits="userSpaceOnUse">
<stop stop-color="#AF2183"/>
<stop offset="1" stop-color="#693484"/>
</linearGradient>
<linearGradient id="paint6_linear_1125_173" x1="18.1242" y1="31.8984" x2="18.1242" y2="34.7984" gradientUnits="userSpaceOnUse">
<stop stop-color="#AF2183"/>
<stop offset="1" stop-color="#693484"/>
</linearGradient>
<linearGradient id="paint7_linear_1125_173" x1="10.8742" y1="46.3984" x2="10.8742" y2="49.2984" gradientUnits="userSpaceOnUse">
<stop stop-color="#AF2183"/>
<stop offset="1" stop-color="#693484"/>
</linearGradient>
<linearGradient id="paint8_linear_1125_173" x1="19.5754" y1="46.3984" x2="19.5754" y2="49.2984" gradientUnits="userSpaceOnUse">
<stop stop-color="#AF2183"/>
<stop offset="1" stop-color="#693484"/>
</linearGradient>
<linearGradient id="paint9_linear_1125_173" x1="28.2746" y1="46.3984" x2="28.2746" y2="49.2984" gradientUnits="userSpaceOnUse">
<stop stop-color="#AF2183"/>
<stop offset="1" stop-color="#693484"/>
</linearGradient>
<linearGradient id="paint10_linear_1125_173" x1="36.9758" y1="46.3984" x2="36.9758" y2="49.2984" gradientUnits="userSpaceOnUse">
<stop stop-color="#AF2183"/>
<stop offset="1" stop-color="#693484"/>
</linearGradient>
<linearGradient id="paint11_linear_1125_173" x1="68.1492" y1="8.70312" x2="68.1492" y2="26.1031" gradientUnits="userSpaceOnUse">
<stop stop-color="#AF2183"/>
<stop offset="1" stop-color="#693484"/>
</linearGradient>
</defs>
</svg>
