<svg width="92" height="92" viewBox="0 0 92 92" fill="none" xmlns="http://www.w3.org/2000/svg">
<path d="M89.7722 15.03C88.402 14.3058 86.7429 14.3989 85.4624 15.272L62.909 30.6494V18.7273C62.909 16.4179 61.0367 14.5455 58.7272 14.5455H4.18182C1.87234 14.5455 0 16.4179 0 18.7273V73.2727C0 75.5822 1.87234 77.4546 4.18182 77.4546H58.7272C61.0367 77.4546 62.909 75.5822 62.909 73.2727V61.3509L85.4624 76.728C86.17 77.2103 86.9927 77.4548 87.8185 77.4548C88.4876 77.4548 89.1589 77.2945 89.7722 76.9703C91.1427 76.246 92 74.8231 92 73.273V18.7273C92 17.1773 91.1427 15.7543 89.7722 15.03ZM54.5454 69.0909H8.36364V22.9092H54.5454V38.562V53.4381V69.0909ZM83.6364 65.3602L62.909 51.2281V40.7722L83.6364 26.6399V65.3602Z" fill="url(#paint0_linear_1149_5)"/>
<defs>
<linearGradient id="paint0_linear_1149_5" x1="46" y1="14.5454" x2="46" y2="77.4548" gradientUnits="userSpaceOnUse">
<stop stop-color="#AD2183"/>
<stop offset="1" stop-color="#693484"/>
</linearGradient>
</defs>
</svg>
