<svg width="68" height="68" viewBox="0 0 68 68" fill="none" xmlns="http://www.w3.org/2000/svg">
<path d="M66.2468 17.5967L52.9 0.66952C52.5653 0.247431 52.0704 0 51.5319 0H16.4839C15.9454 0 15.4506 0.247431 15.1158 0.66952L1.76905 17.5967C1.52162 17.9024 1.39062 18.2808 1.39062 18.6738V66.2534C1.39062 67.214 2.17658 68 3.1372 68H64.8641C65.8247 68 66.6106 67.214 66.6106 66.2534V18.6738C66.6106 18.2808 66.4797 17.9024 66.2468 17.5967ZM61.5019 17.2183H35.7545V3.49315H50.6877L61.5019 17.2183ZM17.3281 3.49315H32.2613V17.2183H6.51391L17.3281 3.49315ZM4.88378 64.5069V20.7115H63.1175V64.5069H4.88378Z" fill="url(#paint0_linear_1125_151)"/>
<path d="M52.7258 33.0703H17.0083C16.0477 33.0703 15.2617 33.8563 15.2617 34.8169C15.2617 35.7775 16.0477 36.5635 17.0083 36.5635H52.7258C53.6864 36.5635 54.4723 35.7775 54.4723 34.8169C54.4723 33.8563 53.6864 33.0703 52.7258 33.0703Z" fill="url(#paint1_linear_1125_151)"/>
<path d="M45.9419 41.2656H23.7895C22.8289 41.2656 22.043 42.0516 22.043 43.0122C22.043 43.9728 22.8289 44.7588 23.7895 44.7588H45.9274C46.888 44.7588 47.674 43.9728 47.674 43.0122C47.674 42.0516 46.9026 41.2656 45.9419 41.2656Z" fill="url(#paint2_linear_1125_151)"/>
<path d="M45.9419 49.4453H23.7895C22.8289 49.4453 22.043 50.2313 22.043 51.1919C22.043 52.1525 22.8289 52.9385 23.7895 52.9385H45.9274C46.888 52.9385 47.674 52.1525 47.674 51.1919C47.674 50.2313 46.9026 49.4453 45.9419 49.4453Z" fill="url(#paint3_linear_1125_151)"/>
<defs>
<linearGradient id="paint0_linear_1125_151" x1="34.0006" y1="0" x2="34.0006" y2="68" gradientUnits="userSpaceOnUse">
<stop stop-color="#B12083"/>
<stop offset="1" stop-color="#693484"/>
</linearGradient>
<linearGradient id="paint1_linear_1125_151" x1="34.867" y1="33.0703" x2="34.867" y2="36.5635" gradientUnits="userSpaceOnUse">
<stop stop-color="#B12083"/>
<stop offset="1" stop-color="#693484"/>
</linearGradient>
<linearGradient id="paint2_linear_1125_151" x1="34.8585" y1="41.2656" x2="34.8585" y2="44.7588" gradientUnits="userSpaceOnUse">
<stop stop-color="#B12083"/>
<stop offset="1" stop-color="#693484"/>
</linearGradient>
<linearGradient id="paint3_linear_1125_151" x1="34.8585" y1="49.4453" x2="34.8585" y2="52.9385" gradientUnits="userSpaceOnUse">
<stop stop-color="#B12083"/>
<stop offset="1" stop-color="#693484"/>
</linearGradient>
</defs>
</svg>
